# xmcd
#
# Track frame offsets:
#	150
#	15081
#	29875
#	42172
#	57806
#	74033
#	89738
#	106909
#	121668
#	136351
#	150571
#	164273
#	186009
#	199651
#
# Disc length: 2886 seconds
#
# Revision: 1
# Processed by: cddbd v1.5.1PL2 Copyright (c) Steve Scherf et al.
# Submitted via: audiograbber 1.83.01
#
DISCID=b90b440e
DTITLE=Jim Hendricks - Rocky Top country sampler
DYEAR=1995
DGENRE=Country
TTITLE0=Cindy
TTITLE1=Buffalo gals/Blue tail fly
TTITLE2=The fishin' hole (Theme from The Andy Griffth Show)
TTITLE3=This land is your land
TTITLE4=Under the double eagle
TTITLE5=Listen to the mockingbird
TTITLE6=Turkey in the straw/Pick a bale a day
TTITLE7=Roll in my sweet baby's arms
TTITLE8=Cotton fields
TTITLE9=Wildwood flower
TTITLE10=When you and I were younger, Maggie
TTITLE11=Make me a pallet on your floor
TTITLE12=Old spinning wheel
TTITLE13=Will the circle be unbroken?
EXTD=
EXTT0=
EXTT1=
EXTT2=
EXTT3=
EXTT4=
EXTT5=
EXTT6=
EXTT7=
EXTT8=
EXTT9=
EXTT10=
EXTT11=
EXTT12=
EXTT13=
PLAYORDER=
